<svg width="105" height="105" viewBox="0 0 105 105" fill="none" xmlns="http://www.w3.org/2000/svg">
<path d="M74.375 30.625V74.375H65.625V30.625H74.375ZM56.875 36.75L41.125 52.5L56.875 68.25L50.75 74.375L28.875 52.5L50.75 30.625L56.875 36.75ZM91.875 21.875C91.875 19.4687 91.019 17.4096 89.3069 15.6975C87.5948 13.9854 85.5342 13.1279 83.125 13.125L21.875 13.125C19.4688 13.125 17.4096 13.9825 15.6975 15.6975C13.9854 17.4125 13.1279 19.4717 13.125 21.875L13.125 83.125C13.125 85.5312 13.9825 87.5919 15.6975 89.3069C17.4125 91.0219 19.4717 91.8779 21.875 91.875H83.125C85.5312 91.875 87.5919 91.019 89.3069 89.3069C91.0219 87.5948 91.8779 85.5342 91.875 83.125V21.875ZM83.125 21.875V83.125H21.875L21.875 21.875L83.125 21.875Z" fill="#686868"/>
</svg>
