<svg width="105" height="105" viewBox="0 0 105 105" fill="none" xmlns="http://www.w3.org/2000/svg">
<path d="M30.625 74.375L30.625 30.625H39.375L39.375 74.375L30.625 74.375ZM48.125 68.25L63.875 52.5L48.125 36.75L54.25 30.625L76.125 52.5L54.25 74.375L48.125 68.25ZM13.125 83.125C13.125 85.5312 13.981 87.5904 15.6931 89.3025C17.4052 91.0146 19.4658 91.8721 21.875 91.875L83.125 91.875C85.5312 91.875 87.5904 91.0175 89.3025 89.3025C91.0146 87.5875 91.8721 85.5283 91.875 83.125L91.875 21.875C91.875 19.4688 91.0175 17.4081 89.3025 15.6931C87.5875 13.9781 85.5283 13.1221 83.125 13.125L21.875 13.125C19.4688 13.125 17.4081 13.981 15.6931 15.6931C13.9781 17.4052 13.1221 19.4658 13.125 21.875L13.125 83.125ZM21.875 83.125L21.875 21.875L83.125 21.875L83.125 83.125L21.875 83.125Z" fill="#686868"/>
</svg>
