<svg width="105" height="105" viewBox="0 0 105 105" fill="none" xmlns="http://www.w3.org/2000/svg">
<path d="M30.625 30.625L74.375 30.625V39.375L30.625 39.375L30.625 30.625ZM36.75 48.125L52.5 63.875L68.25 48.125L74.375 54.25L52.5 76.125L30.625 54.25L36.75 48.125ZM21.875 13.125C19.4687 13.125 17.4096 13.981 15.6975 15.6931C13.9854 17.4052 13.1279 19.4658 13.125 21.875L13.125 83.125C13.125 85.5312 13.9825 87.5904 15.6975 89.3025C17.4125 91.0146 19.4717 91.8721 21.875 91.875L83.125 91.875C85.5312 91.875 87.5919 91.0175 89.3069 89.3025C91.0219 87.5875 91.8779 85.5283 91.875 83.125L91.875 21.875C91.875 19.4687 91.019 17.4081 89.3069 15.6931C87.5948 13.9781 85.5342 13.1221 83.125 13.125L21.875 13.125ZM21.875 21.875L83.125 21.875L83.125 83.125L21.875 83.125L21.875 21.875Z" fill="#686868"/>
</svg>
