<svg width="105" height="105" viewBox="0 0 105 105" fill="none" xmlns="http://www.w3.org/2000/svg">
<path d="M30.625 74.375H74.375V65.625H30.625L30.625 74.375ZM36.75 56.875L52.5 41.125L68.25 56.875L74.375 50.75L52.5 28.875L30.625 50.75L36.75 56.875ZM21.875 91.875C19.4687 91.875 17.4096 91.019 15.6975 89.3069C13.9854 87.5948 13.1279 85.5342 13.125 83.125L13.125 21.875C13.125 19.4688 13.9825 17.4096 15.6975 15.6975C17.4125 13.9854 19.4717 13.1279 21.875 13.125L83.125 13.125C85.5312 13.125 87.5919 13.9825 89.3069 15.6975C91.0219 17.4125 91.8779 19.4717 91.875 21.875L91.875 83.125C91.875 85.5313 91.019 87.5919 89.3069 89.3069C87.5948 91.0219 85.5342 91.8779 83.125 91.875L21.875 91.875ZM21.875 83.125L83.125 83.125L83.125 21.875L21.875 21.875L21.875 83.125Z" fill="#686868"/>
</svg>
    