<svg width="327" height="324" viewBox="0 0 327 324" fill="none" xmlns="http://www.w3.org/2000/svg">
<g filter="url(#filter0_d_141_49)">
<path d="M169.576 0C128.634 29.9706 97.0526 83.0425 100.214 132.55C104.476 127.703 109.208 123.269 114.379 119.372C121.848 75.5056 147.228 31.5668 169.576 0ZM30.8967 0.991331C47.0954 23.8762 64.8783 53.2585 76.2805 84.3975C81.6265 88.5547 86.5356 93.2312 90.8617 98.3951C91.6301 94.9605 92.5132 91.5523 93.5092 88.1763C82.58 55.5339 58.889 18.2898 30.8967 0.991331ZM302.318 8.1733C270.582 35.4887 255.839 75.39 252.064 113.93C253.973 116.391 255.797 118.916 257.532 121.503C260.694 114.541 264.446 107.862 268.747 101.538C275.048 67.1752 287.194 33.6591 302.318 8.1733ZM240.624 10.6513C197.181 20.3988 168.422 63.3262 162.517 102.079C164.509 103.197 167.027 105.488 168.725 107.731C183.874 63.258 209.785 33.7086 240.624 10.6513ZM4 71.7288C38.6959 88.0146 74.9122 109.493 89.1248 141.208C87.6023 132.959 87.3631 124.194 88.1893 115.176C69.0268 86.7445 35.2818 72.7616 4 71.7288ZM323 90.1048C299.945 89.5687 271.447 105.764 265.287 134.709C266.05 137.77 274.012 143.964 279.367 146.052C279.885 116.75 304.279 104.461 323 90.1048ZM206.21 91.5628C220.309 105.909 238.989 121.985 247.724 149.138C250.565 147.476 253.507 145.976 256.556 144.663C245.975 123.632 227.039 99.3109 206.21 91.5628ZM157.116 111.72C132.08 114.147 114.214 131.188 101.348 150.944C91.5445 165.997 85.8588 184.155 84.8938 201.925C102.307 165.947 126.748 129.225 160.381 116.673L157.116 111.72ZM178.51 120.654C177.02 122.494 175.103 123.805 173.226 125.212C194.047 142.83 205.326 164.485 210.797 187.453C212.783 184.142 214.908 180.916 217.165 177.782C211.074 155.171 195.641 130.864 178.51 120.654ZM158.902 130.033C156.682 130.972 154.503 132.005 152.37 133.128L151.378 151.261C161.094 158.892 168.412 166.661 174.171 176.216L175.988 143.019C171.335 138.341 165.723 134.006 158.902 130.033ZM78.2821 146.136C40.3564 157.38 17.714 192.053 11.6122 227.124C31.5313 198.205 51.4416 168.677 81.8778 156.147C80.8036 152.595 79.6028 149.264 78.2821 146.137V146.136ZM128.363 152.491C125.753 155.836 123.456 158.574 121.118 161.951C150.455 175.777 161.441 200.339 175.301 224.766C173.845 192.573 156.618 163.016 128.363 152.491ZM265.754 154.048C246.234 160.85 230.644 176.688 219.255 196.873C211.801 210.082 206.235 225.058 202.543 240.104C215.904 221.734 225.339 207.915 234.582 196.308C245.809 182.208 256.98 171.385 273.873 160.476C271.931 157.092 268.838 154.303 265.754 154.048ZM280.879 170.254C277.43 172.458 274.266 174.631 271.323 176.813C286.998 204.942 297.376 236.018 308.464 266.115C307.457 233.07 299.146 199.59 280.879 170.254ZM109.118 182.059C102.293 194.816 95.7975 208.45 87.3665 221.519L88.4969 239.968C96.5722 240.746 104.154 238.724 112.432 236.169L109.118 182.059ZM261.834 184.533C253.586 192.333 247.384 199.389 241.336 207.232C247.104 211.299 254.488 212.6 263.134 212.736L267.212 194.986C265.495 191.463 263.702 187.978 261.834 184.533ZM148.581 202.382L146.984 231.556L147.347 231.016C153.603 235.206 159.678 235.18 166.734 234.112C159.942 222.603 154.525 211.776 148.581 202.382ZM237 218.765L228.356 256.396C236.298 259.778 243.57 262.671 251.644 262.749L260.385 224.699C252.238 224.362 244.133 222.92 237 218.765ZM146.3 244.066L144.575 275.583C152.702 278.627 160.601 279.63 168.566 278.639L170.367 245.722C162.934 246.934 154.634 247.564 146.3 244.066ZM113.189 248.515C105.86 250.703 97.9412 252.593 89.24 252.099L91.8514 294.721C101.225 294.788 109.763 294.437 115.843 291.856L113.189 248.515ZM225.611 268.339L217.356 304.278C224.997 306.984 232.787 308.953 240.731 310.253L248.901 274.692C240.215 274.143 232.608 271.306 225.611 268.339ZM143.892 288.064L142.363 315.999H166.521L167.901 290.796C159.876 291.483 151.821 290.543 143.892 288.064ZM116.616 304.451C108.915 306.889 100.633 307.018 92.5932 306.849L93.1534 316H117.323L116.616 304.451Z" fill="url(#paint0_linear_141_49)"/>
</g>
<defs>
<filter id="filter0_d_141_49" x="0" y="0" width="327" height="324" filterUnits="userSpaceOnUse" color-interpolation-filters="sRGB">
<feFlood flood-opacity="0" result="BackgroundImageFix"/>
<feColorMatrix in="SourceAlpha" type="matrix" values="0 0 0 0 0 0 0 0 0 0 0 0 0 0 0 0 0 0 127 0" result="hardAlpha"/>
<feOffset dy="4"/>
<feGaussianBlur stdDeviation="2"/>
<feComposite in2="hardAlpha" operator="out"/>
<feColorMatrix type="matrix" values="0 0 0 0 0 0 0 0 0 0 0 0 0 0 0 0 0 0 0.25 0"/>
<feBlend mode="normal" in2="BackgroundImageFix" result="effect1_dropShadow_141_49"/>
<feBlend mode="normal" in="SourceGraphic" in2="effect1_dropShadow_141_49" result="shape"/>
</filter>
<linearGradient id="paint0_linear_141_49" x1="61.8215" y1="158" x2="310.563" y2="158" gradientUnits="userSpaceOnUse">
<stop offset="0.0339996" stop-color="#077336"/>
<stop offset="0.279" stop-color="#898C20"/>
<stop offset="0.479" stop-color="#D9910D"/>
<stop offset="0.674" stop-color="#F28705"/>
<stop offset="0.904" stop-color="#F2BE05"/>
</linearGradient>
</defs>
</svg>
