<svg width="134" height="134" viewBox="0 0 134 134" fill="none" xmlns="http://www.w3.org/2000/svg">
<g clip-path="url(#clip0_1_5)" filter="url(#filter0_d_1_5)">
<g filter="url(#filter1_d_1_5)">
<path d="M71.7392 5C56.2255 16.3839 44.2589 36.5425 45.4569 55.3471C47.0717 53.5063 48.8648 51.8221 50.8242 50.3418C53.6542 33.6797 63.2712 16.9902 71.7392 5ZM19.1915 5.37654C25.3295 14.069 32.0676 25.2295 36.3881 37.0572C38.4138 38.6362 40.2739 40.4126 41.9131 42.374C42.2043 41.0694 42.5389 39.7748 42.9163 38.4925C38.7751 26.0938 29.7982 11.9471 19.1915 5.37654ZM122.037 8.10451C110.012 18.4799 104.425 33.6358 102.995 48.2748C103.718 49.2094 104.409 50.1687 105.067 51.151C106.265 48.507 107.687 45.9699 109.316 43.5676C111.704 30.5155 116.306 17.7849 122.037 8.10451ZM98.6601 9.04574C82.1989 12.7482 71.3017 29.0536 69.0643 43.7733C69.8192 44.1978 70.7731 45.0682 71.4168 45.92C77.1568 29.0277 86.9749 17.8037 98.6601 9.04574ZM9 32.2452C22.1468 38.4311 35.8696 46.5893 41.255 58.6359C40.6781 55.5027 40.5875 52.1735 40.9005 48.7478C33.6396 37.9487 20.8531 32.6374 9 32.2452ZM129.874 39.225C121.138 39.0214 110.34 45.173 108.005 56.1672C108.294 57.3301 111.312 59.6828 113.34 60.4757C113.537 49.346 122.78 44.6782 129.874 39.225ZM85.6203 39.7788C90.9625 45.2279 98.0406 51.3343 101.351 61.6478C102.427 61.0165 103.542 60.447 104.697 59.9484C100.688 51.9597 93.5127 42.7218 85.6203 39.7788ZM67.0178 47.4354C57.5314 48.357 50.7615 54.8299 45.8865 62.3338C42.1718 68.0515 40.0174 74.9486 39.6518 81.6982C46.2498 68.0327 55.5108 54.0841 68.2549 49.3165L67.0178 47.4354ZM75.1243 50.8288C74.5599 51.5276 73.8334 52.0255 73.1222 52.5599C81.0116 59.2519 85.2851 67.4774 87.3583 76.2014C88.1108 74.9437 88.9159 73.7182 89.7714 72.5281C87.4634 63.9395 81.6154 54.707 75.1243 50.8288ZM67.6945 54.3911C66.8533 54.748 66.0275 55.1402 65.2194 55.5667L64.8436 62.4544C68.5253 65.353 71.2979 68.3037 73.4803 71.9332L74.1686 59.3238C72.4055 57.5469 70.279 55.9003 67.6945 54.3911ZM37.1465 60.5077C22.7759 64.7784 14.1964 77.9485 11.8844 91.27C19.432 80.2852 26.9763 69.0694 38.509 64.3102C38.102 62.961 37.647 61.6957 37.1465 60.5082V60.5077ZM56.123 62.9213C55.1337 64.1921 54.2636 65.2319 53.3775 66.5149C64.494 71.7664 68.6568 81.096 73.9083 90.3742C73.3566 78.1461 66.8289 66.9196 56.123 62.9216V62.9213ZM108.182 63.513C100.786 66.0964 94.8787 72.1122 90.5631 79.7795C87.7386 84.7966 85.6297 90.4852 84.2306 96.2001C89.2935 89.2225 92.8685 83.9735 96.3707 79.5647C100.625 74.209 104.858 70.0983 111.259 65.9545C110.523 64.669 109.351 63.6099 108.182 63.5132V63.513ZM113.913 69.6684C112.606 70.5055 111.408 71.331 110.293 72.1597C116.232 82.8444 120.164 94.6482 124.366 106.08C123.984 93.5282 120.835 80.8116 113.913 69.6684ZM48.8305 74.1526C46.2447 78.9982 43.7834 84.1769 40.5887 89.141L41.0171 96.1483C44.0769 96.4438 46.9498 95.676 50.0866 94.7056L48.8305 74.1526ZM106.697 75.0921C103.572 78.0549 101.222 80.7352 98.93 83.7142C101.115 85.2588 103.913 85.7531 107.189 85.8049L108.735 79.0627C108.084 77.7245 107.405 76.4008 106.697 75.0921ZM63.7838 81.8719L63.1788 92.9531L63.3161 92.7482C65.6869 94.3395 67.9885 94.3298 70.6621 93.9241C68.0886 89.5526 66.0362 85.44 63.7838 81.8719ZM97.287 88.0946L94.0116 102.388C97.0212 103.673 99.7766 104.772 102.836 104.801L106.148 90.3486C103.061 90.2206 99.9896 89.6732 97.287 88.0946ZM62.9195 97.705L62.2657 109.676C65.3451 110.832 68.3381 111.213 71.3563 110.837L72.0388 98.3342C69.2222 98.7945 66.0774 99.0337 62.9195 97.705ZM50.3733 99.395C47.5963 100.226 44.5956 100.944 41.2987 100.756L42.2881 116.946C45.84 116.971 49.075 116.838 51.379 115.857L50.3733 99.395ZM92.9716 106.925L89.8435 120.576C92.7388 121.604 95.6907 122.351 98.7008 122.845L101.796 109.338C98.5053 109.129 95.6229 108.052 92.9716 106.925ZM62.007 114.417L61.4278 125.028H70.5817L71.1045 115.455C68.0637 115.716 65.0115 115.359 62.007 114.417ZM51.6717 120.641C48.7538 121.568 45.6156 121.616 42.5692 121.552L42.7815 125.028H51.9399L51.6717 120.641Z" fill="url(#paint0_linear_1_5)"/>
</g>
</g>
<defs>
<filter id="filter0_d_1_5" x="-4" y="0" width="138" height="138" filterUnits="userSpaceOnUse" color-interpolation-filters="sRGB">
<feFlood flood-opacity="0" result="BackgroundImageFix"/>
<feColorMatrix in="SourceAlpha" type="matrix" values="0 0 0 0 0 0 0 0 0 0 0 0 0 0 0 0 0 0 127 0" result="hardAlpha"/>
<feOffset dy="4"/>
<feGaussianBlur stdDeviation="2"/>
<feComposite in2="hardAlpha" operator="out"/>
<feColorMatrix type="matrix" values="0 0 0 0 0 0 0 0 0 0 0 0 0 0 0 0 0 0 0.25 0"/>
<feBlend mode="normal" in2="BackgroundImageFix" result="effect1_dropShadow_1_5"/>
<feBlend mode="normal" in="SourceGraphic" in2="effect1_dropShadow_1_5" result="shape"/>
</filter>
<filter id="filter1_d_1_5" x="5" y="5" width="128.874" height="128.028" filterUnits="userSpaceOnUse" color-interpolation-filters="sRGB">
<feFlood flood-opacity="0" result="BackgroundImageFix"/>
<feColorMatrix in="SourceAlpha" type="matrix" values="0 0 0 0 0 0 0 0 0 0 0 0 0 0 0 0 0 0 127 0" result="hardAlpha"/>
<feOffset dy="4"/>
<feGaussianBlur stdDeviation="2"/>
<feComposite in2="hardAlpha" operator="out"/>
<feColorMatrix type="matrix" values="0 0 0 0 0 0 0 0 0 0 0 0 0 0 0 0 0 0 0.25 0"/>
<feBlend mode="normal" in2="BackgroundImageFix" result="effect1_dropShadow_1_5"/>
<feBlend mode="normal" in="SourceGraphic" in2="effect1_dropShadow_1_5" result="shape"/>
</filter>
<linearGradient id="paint0_linear_1_5" x1="40" y1="125" x2="130" y2="125" gradientUnits="userSpaceOnUse">
<stop stop-color="#077336"/>
<stop offset="0.473179" stop-color="#7D7D1E"/>
<stop offset="1" stop-color="#F28705"/>
</linearGradient>
<clipPath id="clip0_1_5">
<rect width="130" height="130" fill="white"/>
</clipPath>
</defs>
</svg>
